<svg width="17" height="8" viewBox="0 0 17 8" fill="none" xmlns="http://www.w3.org/2000/svg">
    <path fill-rule="evenodd" clip-rule="evenodd"
          d="M0.680771 0.167835C0.737928 0.114634 0.805829 0.0724241 0.880583 0.0436241C0.955338 0.0148241 1.03548 0 1.11641 0C1.19735 0 1.27749 0.0148241 1.35224 0.0436241C1.427 0.0724241 1.4949 0.114634 1.55205 0.167835L8.50016 6.6199L15.4483 0.167835C15.5055 0.11472 15.5734 0.0725863 15.6481 0.0438404C15.7229 0.0150945 15.803 0.000299105 15.8839 0.000299105C15.9648 0.000299105 16.0449 0.0150945 16.1197 0.0438404C16.1944 0.0725863 16.2623 0.11472 16.3196 0.167835C16.3768 0.220951 16.4221 0.284008 16.4531 0.353407C16.4841 0.422806 16.5 0.497187 16.5 0.572304C16.5 0.64742 16.4841 0.721802 16.4531 0.791201C16.4221 0.860599 16.3768 0.923657 16.3196 0.976772L8.9358 7.83216C8.87865 7.88537 8.81074 7.92758 8.73599 7.95638C8.66124 7.98518 8.5811 8 8.50016 8C8.41923 8 8.33909 7.98518 8.26433 7.95638C8.18958 7.92758 8.12168 7.88537 8.06452 7.83216L0.680771 0.976772C0.623469 0.923705 0.578007 0.860663 0.546987 0.791258C0.515967 0.721852 0.5 0.647447 0.5 0.572304C0.5 0.49716 0.515967 0.422755 0.546987 0.35335C0.578007 0.283944 0.623469 0.220903 0.680771 0.167835Z"
          fill="currentColor"/>
</svg>
