<svg width="19" height="18" viewBox="0 0 19 18" fill="none" xmlns="http://www.w3.org/2000/svg">
    <path d="M19 2.35403C19 1.72971 18.7498 1.13095 18.3044 0.689481C17.859 0.248014 17.2549 0 16.625 0L2.375 0C1.74511 0 1.14102 0.248014 0.695621 0.689481C0.250223 1.13095 0 1.72971 0 2.35403L0 11.7702C0 12.3945 0.250223 12.9933 0.695621 13.4347C1.14102 13.8762 1.74511 14.1242 2.375 14.1242H13.7584C14.0733 14.1243 14.3753 14.2483 14.5979 14.4691L17.9859 17.8271C18.0688 17.9095 18.1746 17.9657 18.2898 17.9886C18.405 18.0114 18.5245 17.9999 18.6331 17.9554C18.7416 17.9109 18.8345 17.8355 18.8998 17.7387C18.9651 17.6419 19 17.5281 19 17.4116V2.35403ZM8.54287 5.60966C8.64619 5.75561 8.73644 5.91569 8.81244 6.08165C9.32069 7.19746 9.27913 8.87942 7.69381 10.4437C7.59705 10.5372 7.4679 10.5904 7.3328 10.5926C7.19769 10.5948 7.06685 10.5457 6.96706 10.4554C6.91841 10.4118 6.87929 10.3587 6.85212 10.2994C6.82495 10.2402 6.8103 10.1761 6.80907 10.111C6.80785 10.046 6.82008 9.98135 6.845 9.92115C6.86993 9.86095 6.90702 9.80645 6.954 9.761C7.45156 9.27137 7.752 8.7829 7.91469 8.32504C7.59525 8.51925 7.21644 8.63107 6.81031 8.63107C5.67031 8.63107 4.75 7.75301 4.75 6.67016C4.75 5.5873 5.6715 4.70807 6.80913 4.70807C7.13094 4.70807 7.43612 4.77869 7.70687 4.90345L7.71638 4.90816C7.91706 4.99055 8.10469 5.12238 8.27331 5.28952C8.37425 5.38721 8.4645 5.49432 8.54287 5.60966ZM13.0625 8.32504C12.7431 8.51925 12.3642 8.63107 11.9581 8.63107C10.8205 8.63107 9.89781 7.75301 9.89781 6.67016C9.89781 5.5873 10.8205 4.70807 11.9569 4.70807C12.2788 4.70807 12.5839 4.77869 12.8547 4.90345L12.8642 4.90816C13.0661 4.99055 13.2525 5.12238 13.4211 5.28952C13.5221 5.38721 13.6123 5.49432 13.6907 5.60966C13.794 5.75561 13.8854 5.91569 13.9614 6.08165C14.4697 7.19746 14.4269 8.87942 12.8428 10.4437C12.746 10.5375 12.6166 10.591 12.4812 10.5932C12.3458 10.5954 12.2147 10.5461 12.1149 10.4554C12.0662 10.4118 12.0271 10.3587 11.9999 10.2994C11.9728 10.2402 11.9581 10.1761 11.9569 10.111C11.9557 10.046 11.9679 9.98135 11.9928 9.92115C12.0177 9.86095 12.0548 9.80645 12.1018 9.761C12.6006 9.27137 12.8998 8.7829 13.0637 8.32504H13.0625Z"
          fill="currentColor"/>
</svg>
