<svg width="17" height="13" viewBox="0 0 17 13" fill="none" xmlns="http://www.w3.org/2000/svg">
<path d="M17 6.75C17 6.75 13.8125 0.90625 8.5 0.90625C3.1875 0.90625 0 6.75 0 6.75C0 6.75 3.1875 12.5938 8.5 12.5938C13.8125 12.5938 17 6.75 17 6.75ZM1.24631 6.75C1.76005 5.96919 2.35093 5.24198 3.01006 4.57931C4.3775 3.20975 6.2475 1.96875 8.5 1.96875C10.7525 1.96875 12.6214 3.20975 13.991 4.57931C14.6501 5.24198 15.241 5.96919 15.7548 6.75C15.6931 6.84244 15.6251 6.94444 15.5476 7.056C15.1916 7.566 14.6657 8.246 13.991 8.92069C12.6214 10.2902 10.7514 11.5312 8.5 11.5312C6.2475 11.5312 4.37856 10.2902 3.009 8.92069C2.34987 8.25802 1.76005 7.5308 1.24631 6.75Z" fill="#848484"/>
<path d="M8.5 4.09375C7.79552 4.09375 7.11989 4.3736 6.62175 4.87175C6.1236 5.36989 5.84375 6.04552 5.84375 6.75C5.84375 7.45448 6.1236 8.13011 6.62175 8.62825C7.11989 9.1264 7.79552 9.40625 8.5 9.40625C9.20448 9.40625 9.88011 9.1264 10.3783 8.62825C10.8764 8.13011 11.1562 7.45448 11.1562 6.75C11.1562 6.04552 10.8764 5.36989 10.3783 4.87175C9.88011 4.3736 9.20448 4.09375 8.5 4.09375ZM4.78125 6.75C4.78125 5.76373 5.17305 4.81785 5.87045 4.12045C6.56785 3.42305 7.51373 3.03125 8.5 3.03125C9.48627 3.03125 10.4322 3.42305 11.1296 4.12045C11.827 4.81785 12.2188 5.76373 12.2188 6.75C12.2188 7.73627 11.827 8.68215 11.1296 9.37955C10.4322 10.077 9.48627 10.4688 8.5 10.4688C7.51373 10.4688 6.56785 10.077 5.87045 9.37955C5.17305 8.68215 4.78125 7.73627 4.78125 6.75Z" fill="#848484"/>
</svg>
