<svg width="17" height="16" viewBox="0 0 17 16" fill="currentColor" xmlns="http://www.w3.org/2000/svg">
    <path d="M17 2.09248C17 1.53752 16.7761 1.00529 16.3776 0.612872C15.9791 0.220457 15.4386 0 14.875 0L2.125 0C1.56141 0 1.02091 0.220457 0.622398 0.612872C0.223883 1.00529 0 1.53752 0 2.09248L0 10.4624C0 11.0173 0.223883 11.5496 0.622398 11.942C1.02091 12.3344 1.56141 12.5549 2.125 12.5549H12.3101C12.5919 12.5549 12.8621 12.6652 13.0613 12.8614L16.0926 15.8463C16.1669 15.9196 16.2615 15.9696 16.3646 15.9898C16.4677 16.0101 16.5745 15.9999 16.6717 15.9603C16.7688 15.9208 16.8519 15.8538 16.9103 15.7677C16.9688 15.6817 17 15.5805 17 15.477V2.09248ZM3.71875 3.13871H13.2812C13.4221 3.13871 13.5573 3.19383 13.6569 3.29193C13.7565 3.39003 13.8125 3.52309 13.8125 3.66183C13.8125 3.80057 13.7565 3.93363 13.6569 4.03173C13.5573 4.12984 13.4221 4.18495 13.2812 4.18495H3.71875C3.57785 4.18495 3.44273 4.12984 3.3431 4.03173C3.24347 3.93363 3.1875 3.80057 3.1875 3.66183C3.1875 3.52309 3.24347 3.39003 3.3431 3.29193C3.44273 3.19383 3.57785 3.13871 3.71875 3.13871ZM3.71875 5.75431H13.2812C13.4221 5.75431 13.5573 5.80942 13.6569 5.90752C13.7565 6.00563 13.8125 6.13869 13.8125 6.27743C13.8125 6.41617 13.7565 6.54922 13.6569 6.64733C13.5573 6.74543 13.4221 6.80054 13.2812 6.80054H3.71875C3.57785 6.80054 3.44273 6.74543 3.3431 6.64733C3.24347 6.54922 3.1875 6.41617 3.1875 6.27743C3.1875 6.13869 3.24347 6.00563 3.3431 5.90752C3.44273 5.80942 3.57785 5.75431 3.71875 5.75431ZM3.71875 8.3699H9.03125C9.17215 8.3699 9.30727 8.42501 9.4069 8.52312C9.50653 8.62122 9.5625 8.75428 9.5625 8.89302C9.5625 9.03176 9.50653 9.16482 9.4069 9.26292C9.30727 9.36102 9.17215 9.41614 9.03125 9.41614H3.71875C3.57785 9.41614 3.44273 9.36102 3.3431 9.26292C3.24347 9.16482 3.1875 9.03176 3.1875 8.89302C3.1875 8.75428 3.24347 8.62122 3.3431 8.52312C3.44273 8.42501 3.57785 8.3699 3.71875 8.3699Z"/>
</svg>
