<svg width="22" height="18" viewBox="0 0 21 15" fill="none" xmlns="http://www.w3.org/2000/svg">
    <path d="M7.875 7.5C8.91929 7.5 9.92081 7.10491 10.6592 6.40165C11.3977 5.69839 11.8125 4.74456 11.8125 3.75C11.8125 2.75544 11.3977 1.80161 10.6592 1.09835C9.92081 0.395088 8.91929 0 7.875 0C6.83071 0 5.82919 0.395088 5.09077 1.09835C4.35234 1.80161 3.9375 2.75544 3.9375 3.75C3.9375 4.74456 4.35234 5.69839 5.09077 6.40165C5.82919 7.10491 6.83071 7.5 7.875 7.5ZM10.5 3.75C10.5 4.41304 10.2234 5.04893 9.73115 5.51777C9.23887 5.98661 8.57119 6.25 7.875 6.25C7.17881 6.25 6.51113 5.98661 6.01884 5.51777C5.52656 5.04893 5.25 4.41304 5.25 3.75C5.25 3.08696 5.52656 2.45107 6.01884 1.98223C6.51113 1.51339 7.17881 1.25 7.875 1.25C8.57119 1.25 9.23887 1.51339 9.73115 1.98223C10.2234 2.45107 10.5 3.08696 10.5 3.75ZM15.75 13.75C15.75 15 14.4375 15 14.4375 15H1.3125C1.3125 15 0 15 0 13.75C0 12.5 1.3125 8.75 7.875 8.75C14.4375 8.75 15.75 12.5 15.75 13.75ZM14.4375 13.745C14.4362 13.4375 14.2354 12.5125 13.3455 11.665C12.4897 10.85 10.8793 10 7.875 10C4.86937 10 3.26025 10.85 2.4045 11.665C1.51463 12.5125 1.31512 13.4375 1.3125 13.745H14.4375Z" fill="black"/>
    <path fill-rule="evenodd" clip-rule="evenodd" d="M17.7187 3.75C17.8928 3.75 18.0597 3.81585 18.1828 3.93306C18.3059 4.05027 18.375 4.20924 18.375 4.375V6.25H20.3437C20.5178 6.25 20.6847 6.31585 20.8078 6.43306C20.9309 6.55027 21 6.70924 21 6.875C21 7.04076 20.9309 7.19973 20.8078 7.31694C20.6847 7.43415 20.5178 7.5 20.3437 7.5H18.375V9.375C18.375 9.54076 18.3059 9.69973 18.1828 9.81694C18.0597 9.93415 17.8928 10 17.7187 10C17.5447 10 17.3778 9.93415 17.2547 9.81694C17.1316 9.69973 17.0625 9.54076 17.0625 9.375V7.5H15.0937C14.9197 7.5 14.7528 7.43415 14.6297 7.31694C14.5066 7.19973 14.4375 7.04076 14.4375 6.875C14.4375 6.70924 14.5066 6.55027 14.6297 6.43306C14.7528 6.31585 14.9197 6.25 15.0937 6.25H17.0625V4.375C17.0625 4.20924 17.1316 4.05027 17.2547 3.93306C17.3778 3.81585 17.5447 3.75 17.7187 3.75Z" fill="black"/>
</svg>
