<svg xmlns="http://www.w3.org/2000/svg" viewBox="0 0 1328.14 283.99" fill="white">
    <g>
        <path d="m149.61,203.16l-5.25,1.41,14.48,54.03c.28,1.03.4,2.04.4,3.02,0,3.05-1.24,5.94-3.32,8.06-1.04,1.06-2.28,1.92-3.65,2.51-1.38.59-2.9.93-4.56.93h-28.96c-1.66,0-3.18-.34-4.56-.93-2.07-.89-3.82-2.38-5.05-4.23-1.23-1.86-1.93-4.04-1.93-6.33,0-.98.13-1.99.4-3.02l14.48-54.03c.41-1.52,1-2.76,1.73-3.81,1.09-1.57,2.49-2.72,4.1-3.52,1.61-.8,3.45-1.21,5.3-1.21,2.47,0,4.9.74,6.84,2.13.97.7,1.84,1.55,2.56,2.6.73,1.05,1.32,2.3,1.73,3.81l5.25-1.41,5.25-1.41c-.72-2.68-1.84-5.1-3.3-7.19-2.18-3.15-5.07-5.53-8.24-7.09-3.18-1.56-6.64-2.33-10.1-2.33-4.6,0-9.24,1.36-13.17,4.16-1.96,1.4-3.73,3.16-5.18,5.26-1.45,2.09-2.58,4.52-3.3,7.19l-14.48,54.03c-.52,1.95-.77,3.91-.77,5.83,0,6.02,2.44,11.6,6.44,15.68,2,2.04,4.41,3.72,7.12,4.88,2.7,1.17,5.71,1.81,8.86,1.81h28.96c3.15,0,6.15-.65,8.86-1.81,4.06-1.75,7.44-4.64,9.81-8.21,2.37-3.57,3.74-7.84,3.74-12.35,0-1.92-.25-3.89-.77-5.83l-14.48-54.03-5.25,1.41Zm-77.55-44.77l-1.41-5.25-54.03,14.48c-5.09,1.36-9.3,4.38-12.16,8.24C1.59,179.71,0,184.41,0,189.28c0,3.77.97,7.64,3.01,11.18l14.48,25.08c2.1,3.63,5.07,6.47,8.45,8.35,3.38,1.89,7.17,2.85,10.98,2.85,2.83,0,5.67-.53,8.37-1.62,2.7-1.09,5.25-2.74,7.45-4.94l39.56-39.56c2.25-2.24,3.93-4.8,5.03-7.47,1.1-2.68,1.62-5.47,1.61-8.2-.01-5.88-2.33-11.44-6.23-15.62-1.96-2.09-4.33-3.84-7.04-5.07-2.71-1.23-5.75-1.93-8.95-1.93-1.98,0-4.02.27-6.07.82l1.41,5.25,1.41,5.25c1.16-.31,2.24-.44,3.25-.44,1.63,0,3.1.35,4.45.96,2.01.91,3.76,2.47,4.98,4.4,1.23,1.92,1.91,4.18,1.91,6.4,0,1.37-.25,2.73-.8,4.06-.55,1.33-1.39,2.64-2.66,3.92l-39.55,39.55c-1.16,1.16-2.45,1.99-3.83,2.55-1.37.56-2.83.83-4.3.83-1.98,0-3.95-.5-5.68-1.47-1.73-.97-3.22-2.38-4.33-4.29l-14.48-25.08c-1.07-1.87-1.55-3.81-1.55-5.74,0-2.49.82-4.95,2.31-6.94,1.49-1.99,3.57-3.5,6.25-4.22l54.03-14.48-1.41-5.25Zm16.39-61.16l3.85-3.85-39.55-39.55c-2.2-2.2-4.75-3.85-7.45-4.94-2.7-1.09-5.55-1.62-8.37-1.62-3.81,0-7.6.96-10.98,2.85-3.38,1.88-6.35,4.72-8.45,8.35l-14.48,25.08C.97,87.07,0,90.94,0,94.71c0,4.87,1.59,9.57,4.46,13.43,2.86,3.86,7.07,6.88,12.16,8.24l54.03,14.48c2.05.55,4.08.82,6.07.81,3.2,0,6.25-.7,8.95-1.93,4.07-1.85,7.36-4.86,9.66-8.45,2.29-3.6,3.61-7.83,3.61-12.24,0-2.73-.51-5.52-1.61-8.2-1.1-2.68-2.78-5.23-5.03-7.47l-3.85,3.85-3.85,3.85c1.27,1.27,2.11,2.59,2.66,3.91.55,1.33.8,2.69.8,4.06.01,2.95-1.23,5.99-3.3,8.19-1.03,1.1-2.25,1.99-3.59,2.6-1.35.61-2.82.95-4.45.96-1.01,0-2.09-.13-3.25-.44l-54.03-14.48c-2.68-.72-4.76-2.23-6.25-4.22-1.48-1.99-2.31-4.45-2.31-6.94,0-1.93.48-3.87,1.55-5.74l14.48-25.08c1.11-1.91,2.6-3.32,4.33-4.29,1.73-.97,3.7-1.47,5.68-1.47,1.46,0,2.92.28,4.3.83,1.38.56,2.67,1.39,3.83,2.55l39.55,39.55,3.85-3.85Zm61.16-16.39l5.25,1.41,14.48-54.03c.52-1.95.77-3.91.77-5.83,0-6.02-2.44-11.6-6.44-15.68-2-2.04-4.41-3.72-7.12-4.88C153.85.65,150.85,0,147.7,0h-28.96c-3.15,0-6.15.65-8.86,1.81-4.06,1.75-7.44,4.64-9.81,8.21-2.37,3.57-3.74,7.84-3.74,12.35,0,1.92.25,3.89.77,5.83l14.48,54.03c.72,2.68,1.84,5.1,3.3,7.19,2.18,3.15,5.07,5.53,8.24,7.09,3.18,1.56,6.64,2.33,10.1,2.33,4.6,0,9.24-1.36,13.17-4.16,1.96-1.4,3.73-3.16,5.18-5.26,1.45-2.09,2.58-4.52,3.3-7.19l-5.25-1.41-5.25-1.41c-.41,1.52-1,2.76-1.73,3.81-1.09,1.57-2.49,2.72-4.1,3.52-1.61.8-3.45,1.21-5.3,1.21-2.47,0-4.9-.74-6.84-2.13-.97-.7-1.84-1.55-2.56-2.6-.73-1.05-1.32-2.3-1.73-3.81l-14.48-54.03c-.28-1.03-.4-2.04-.4-3.02,0-3.05,1.24-5.94,3.32-8.06,1.04-1.06,2.28-1.92,3.65-2.51,1.38-.59,2.9-.93,4.56-.93h28.96c1.66,0,3.18.33,4.56.93,2.07.89,3.82,2.38,5.05,4.23,1.23,1.86,1.93,4.04,1.93,6.33,0,.98-.13,1.99-.4,3.02l-14.48,54.03,5.25,1.41Zm44.77,44.77l1.41,5.25,54.03-14.48c5.09-1.36,9.3-4.38,12.16-8.24,2.87-3.86,4.45-8.56,4.46-13.43,0-3.77-.97-7.64-3.01-11.18l-14.48-25.08c-2.09-3.63-5.07-6.47-8.45-8.35-3.38-1.89-7.17-2.85-10.98-2.85-2.83,0-5.67.53-8.37,1.62-2.7,1.09-5.25,2.74-7.45,4.94l-39.55,39.55c-2.25,2.24-3.93,4.8-5.03,7.47-1.1,2.68-1.62,5.47-1.61,8.2.01,5.88,2.33,11.44,6.23,15.62,1.96,2.09,4.33,3.84,7.04,5.07,2.71,1.23,5.75,1.93,8.95,1.93,1.98,0,4.02-.27,6.07-.81l-1.41-5.25-1.41-5.25c-1.16.31-2.24.44-3.25.44-1.63,0-3.1-.35-4.45-.96-2.01-.91-3.76-2.47-4.98-4.4-1.23-1.92-1.91-4.18-1.91-6.4,0-1.37.25-2.73.8-4.06.55-1.33,1.39-2.64,2.66-3.92l39.55-39.55c1.16-1.16,2.45-1.99,3.83-2.55,1.37-.56,2.83-.83,4.3-.83,1.98,0,3.95.5,5.68,1.47,1.73.97,3.22,2.38,4.33,4.29l14.48,25.08c1.07,1.87,1.55,3.81,1.55,5.74,0,2.49-.82,4.95-2.31,6.94-1.49,1.99-3.57,3.5-6.25,4.22l-54.03,14.48,1.41,5.25Zm-16.39,61.16l-3.85,3.85,39.55,39.55c2.2,2.2,4.75,3.85,7.45,4.94,2.7,1.09,5.55,1.62,8.37,1.62,3.81,0,7.6-.96,10.98-2.85,3.38-1.88,6.35-4.72,8.45-8.35l14.48-25.08c2.04-3.53,3.01-7.41,3.01-11.18,0-4.87-1.59-9.57-4.46-13.43-2.86-3.86-7.07-6.88-12.16-8.24l-54.03-14.48c-2.05-.55-4.08-.82-6.07-.82-3.2,0-6.25.7-8.95,1.93-4.07,1.85-7.36,4.86-9.66,8.45-2.29,3.6-3.61,7.83-3.61,12.24,0,2.73.51,5.52,1.61,8.2,1.1,2.68,2.78,5.23,5.03,7.47l3.85-3.85,3.85-3.85c-1.27-1.27-2.11-2.59-2.66-3.92-.55-1.33-.8-2.69-.8-4.06-.01-2.95,1.23-5.99,3.3-8.19,1.03-1.1,2.25-1.99,3.59-2.6,1.35-.61,2.82-.95,4.45-.96,1.01,0,2.09.13,3.25.44l54.03,14.48c2.67.72,4.76,2.23,6.25,4.22,1.48,1.99,2.31,4.45,2.31,6.94,0,1.93-.48,3.87-1.55,5.74l-14.48,25.08c-1.11,1.91-2.6,3.32-4.33,4.29-1.73.97-3.7,1.47-5.68,1.47-1.46,0-2.92-.28-4.3-.83-1.38-.56-2.67-1.39-3.83-2.55l-39.55-39.55-3.85,3.85Z"/>
        <path d="m1297.17,177.69v19.92c0,5.93-3.3,8.74-9.89,8.46l-27.52-1.29v-10.04l25.66,1.29v-18.35l-31.11-70.53h12.9l22.36,55.48v5.45h3.44v-5.45l22.36-55.48h12.76l-30.96,70.53Zm-71.25-9.75l1.86-8.03h-3.3c-1.63,5.83-4.92,10.61-9.89,14.34-4.97,3.73-11.28,5.59-18.92,5.59-10.32,0-18.66-3.49-25.01-10.46-6.36-6.98-9.53-15.86-9.53-26.66s3.18-19.54,9.53-26.52c6.35-6.97,14.69-10.46,25.01-10.46,7.64,0,13.95,1.86,18.92,5.59,4.97,3.73,8.26,8.55,9.89,14.48h3.3l-1.86-8.17v-10.46h11.61v71.24h-11.61v-10.46Zm-7.6-45.44c-5.07-4.49-11.56-6.74-19.5-6.74s-14.12,2.22-18.85,6.67c-4.73,4.45-7.1,11.21-7.1,20.28s2.37,15.98,7.1,20.43c4.73,4.44,11.01,6.67,18.85,6.67s14.43-2.25,19.5-6.74c5.07-4.49,7.6-11.28,7.6-20.36s-2.53-15.72-7.6-20.21Zm-121.27,45.87h20.07v-86.58l-14.77,1.29v-10.04l16.63-1.43c3.25-.28,5.69.43,7.31,2.15,1.62,1.72,2.44,4.3,2.44,7.74v86.87h19.93v10.04h-51.61v-10.04Zm-47.16,10.04h-11.75v-62.79c0-6.78,3.3-10.04,9.89-9.75l39.57,1.29v10.03l-37.7-1.29v62.5Zm-44.44-10.46l1.86-8.03h-3.3c-1.63,5.83-4.92,10.61-9.89,14.34-4.97,3.73-11.28,5.59-18.92,5.59-10.32,0-18.66-3.49-25.02-10.46-6.36-6.98-9.53-15.86-9.53-26.66s3.18-19.54,9.53-26.52c6.36-6.97,14.7-10.46,25.02-10.46,7.64,0,13.95,1.86,18.92,5.59,4.97,3.73,8.27,8.55,9.89,14.48h3.3l-1.86-8.17v-10.46h11.61v71.24h-11.61v-10.46Zm-7.6-45.44c-5.07-4.49-11.57-6.74-19.5-6.74s-14.12,2.22-18.85,6.67c-4.73,4.45-7.09,11.21-7.09,20.28s2.36,15.98,7.09,20.43c4.73,4.44,11.01,6.67,18.85,6.67s14.43-2.25,19.5-6.74c5.06-4.49,7.6-11.28,7.6-20.36s-2.53-15.72-7.6-20.21Zm-106.37,57.34c-7.74,0-14.08-1.84-19-5.52-4.92-3.68-8.19-8.48-9.82-14.41h-3.3l1.86,8.03v36.55h-11.75v-97.33h11.75v10.46l-1.86,8.17h3.3c1.62-5.93,4.87-10.75,9.75-14.48,4.87-3.73,11.23-5.59,19.07-5.59,10.13,0,18.32,3.49,24.58,10.46,6.26,6.98,9.39,15.87,9.39,26.66s-3.13,19.54-9.39,26.52c-6.26,6.98-14.46,10.46-24.58,10.46Zm15.19-57.27c-4.68-4.54-10.89-6.81-18.64-6.81s-14.26,2.25-19.28,6.74c-5.02,4.49-7.53,11.28-7.53,20.36s2.51,15.72,7.53,20.21c5.02,4.49,11.44,6.74,19.28,6.74s13.95-2.25,18.64-6.74c4.68-4.49,7.02-11.23,7.02-20.21s-2.34-15.75-7.02-20.29Zm-102.92,53.83l5.3-14.91h-6.74c-2.49,5.73-5.71,10.23-9.68,13.47-3.96,3.25-10.11,4.87-18.42,4.87-10.13,0-17.77-3.61-22.94-10.82-5.16-7.21-7.74-16.27-7.74-27.17s2.58-19.78,7.74-26.95c5.16-7.17,12.8-10.75,22.94-10.75,4.39,0,8.24.5,11.54,1.51,3.3,1,6,2.46,8.1,4.37,2.1,1.91,3.75,3.78,4.95,5.59,1.19,1.82,2.36,4.06,3.51,6.74h6.74l-5.3-14.76v-34.55h27.38v105.36h-27.38v-2.01Zm-3.73-44.94c-2.49-2.15-6.59-3.23-12.33-3.23s-10.08,1.08-12.76,3.23c-2.68,2.15-4.01,5.61-4.01,10.39s1.34,8.29,4.01,10.54c2.67,2.25,6.93,3.37,12.76,3.37s9.84-1.1,12.33-3.3c2.48-2.2,3.73-5.73,3.73-10.61s-1.24-8.24-3.73-10.39Zm-126.58,46.95l-2.01-66.23h-6.74l-2.01,66.23h-57.34l-7.02-72.82h26.23l6.16,66.09h6.6l2.01-66.09h57.48l2.01,66.09h6.74l6.31-66.09h26.09l-7.17,72.82h-57.34Zm-101.78-2.29c-6.12,2.48-13.09,3.73-20.93,3.73-12.33,0-22.43-3.13-30.32-9.39-7.88-6.26-11.82-15.79-11.82-28.6,0-6.5,1.12-12.21,3.37-17.13,2.25-4.92,5.33-8.86,9.25-11.83,3.92-2.96,8.36-5.16,13.33-6.59,4.97-1.43,10.37-2.15,16.2-2.15,12.23,0,22.29,3.13,30.18,9.39,7.88,6.26,11.83,15.7,11.83,28.31,0,8.7-1.99,15.96-5.95,21.79-3.97,5.83-9.01,9.99-15.12,12.47Zm-20.93-47.88c-9.84,0-14.77,4.54-14.77,13.62s4.92,13.91,14.77,13.91,14.48-4.63,14.48-13.91-4.83-13.62-14.48-13.62Zm-84.29,50.17h-27.38v-60.92c0-4.2,1.17-7.43,3.51-9.68,2.34-2.25,5.61-3.37,9.82-3.37l50.6,1.15v24.08l-36.55-.72v49.45Zm-81.28-22.65c4.01,0,7.21-.88,9.61-2.65,2.39-1.77,3.73-3.7,4.01-5.81h27.52c-.38,9.94-4.47,17.85-12.25,23.73-7.79,5.88-17.42,8.81-28.89,8.81-12.14,0-21.98-3.25-29.53-9.75-7.55-6.5-11.32-15.91-11.32-28.24s3.77-21.57,11.32-28.02c7.55-6.45,17.39-9.68,29.53-9.68,11.47,0,21.09,2.94,28.89,8.82,7.79,5.88,11.87,13.79,12.25,23.72h-27.52c-.28-2.1-1.63-4.03-4.01-5.81-2.39-1.77-5.59-2.65-9.61-2.65s-7.02,1.15-9.61,3.44c-2.58,2.29-3.87,5.69-3.87,10.18s1.31,8.05,3.94,10.39c2.63,2.34,5.81,3.51,9.53,3.51Z"/>
    </g>
</svg>