<svg width="181" height="26" viewBox="0 0 181 26" fill="none" xmlns="http://www.w3.org/2000/svg">
<path fill-rule="evenodd" clip-rule="evenodd" d="M175.303 20.2223V23.9248C175.303 25.0257 174.697 25.5496 173.484 25.4963L168.42 25.2566V23.392L173.141 23.6318V20.2223L167.418 7.11723H169.791L173.906 17.4255V18.4377H174.539V17.4255L178.653 7.11723H181L175.303 20.2223ZM162.196 18.411L162.539 16.9194H161.932C161.633 18.0026 161.027 18.8905 160.112 19.583C159.198 20.2756 158.038 20.6219 156.631 20.6219C154.732 20.6219 153.198 19.9737 152.029 18.6774C150.86 17.3817 150.275 15.7302 150.275 13.723C150.275 11.7342 150.86 10.0916 152.029 8.79532C153.198 7.49957 154.732 6.85087 156.631 6.85087C158.038 6.85087 159.198 7.19714 160.112 7.88968C161.027 8.58223 161.633 9.47899 161.932 10.58H162.539L162.196 9.06168V7.11723H164.332V19.8561H162.196V18.411ZM160.798 9.96732C159.866 9.13271 158.671 8.71541 157.211 8.71541C155.77 8.71541 154.613 9.12827 153.743 9.954C152.873 10.7797 152.438 12.0361 152.438 13.723C152.438 15.4278 152.873 16.693 153.743 17.5187C154.613 18.3445 155.77 18.7573 157.211 18.7573C158.671 18.7573 159.866 18.3406 160.798 17.5054C161.73 16.6708 162.196 15.4106 162.196 13.723C162.196 12.0538 161.73 10.8025 160.798 9.96732ZM138.486 18.491H142.178V2.4026L139.462 2.64232V0.777779L142.521 0.511416C143.119 0.458143 143.567 0.591325 143.866 0.910961C144.165 1.2306 144.315 1.71005 144.315 2.34932V18.491H147.981V19.8561H138.486V18.491ZM129.809 19.8561H127.647V8.68878C127.647 7.42799 128.253 6.82423 129.467 6.8775L136.746 7.11723V8.98177L129.809 8.74205V19.8561ZM121.634 18.411L121.977 16.9194H121.37C121.071 18.0026 120.464 18.8905 119.55 19.583C118.636 20.2756 117.475 20.6219 116.069 20.6219C114.17 20.6219 112.636 19.9737 111.467 18.6774C110.298 17.3817 109.713 15.7302 109.713 13.723C109.713 11.7342 110.298 10.0916 111.467 8.79532C112.636 7.49957 114.17 6.85087 116.069 6.85087C117.475 6.85087 118.636 7.19714 119.55 7.88968C120.464 8.58223 121.071 9.47899 121.37 10.58H121.977L121.634 9.06168V7.11723H123.77V19.8561H121.634V18.411ZM120.236 9.96732C119.304 9.13271 118.108 8.71541 116.649 8.71541C115.207 8.71541 114.051 9.12827 113.181 9.954C112.311 10.7797 111.876 12.0361 111.876 13.723C111.876 15.4278 112.311 16.693 113.181 17.5187C114.051 18.3445 115.207 18.7573 116.649 18.7573C118.108 18.7573 119.304 18.3406 120.236 17.5054C121.168 16.6708 121.634 15.4106 121.634 13.723C121.634 12.0538 121.168 10.8025 120.236 9.96732ZM100.667 20.6219C99.2427 20.6219 98.0779 20.28 97.1724 19.5964C96.267 18.9132 95.6648 18.0209 95.3659 16.9194H94.7593L95.1021 18.411V25.2033H92.9395V7.11723H95.1021V9.06168L94.7593 10.58H95.3659C95.6648 9.47899 96.2626 8.58223 97.1593 7.88968C98.0559 7.19714 99.2252 6.85087 100.667 6.85087C102.531 6.85087 104.038 7.49957 105.19 8.79532C106.342 10.0916 106.917 11.7431 106.917 13.7497C106.917 15.7385 106.342 17.3817 105.19 18.6774C104.038 19.9737 102.531 20.6219 100.667 20.6219ZM103.462 9.98064C102.601 9.13771 101.458 8.71541 100.034 8.71541C98.5922 8.71541 97.4098 9.13271 96.4867 9.96732C95.5637 10.8025 95.1021 12.0627 95.1021 13.7497C95.1021 15.4189 95.5637 16.6708 96.4867 17.5054C97.4098 18.3406 98.5922 18.7573 100.034 18.7573C101.458 18.7573 102.601 18.3406 103.462 17.5054C104.324 16.6708 104.755 15.4189 104.755 13.7497C104.755 12.081 104.324 10.8241 103.462 9.98064ZM84.5264 19.9826L85.5023 17.2124H84.2627C83.8056 18.2779 83.2122 19.1125 82.4825 19.7162C81.7528 20.32 80.6232 20.6219 79.0935 20.6219C77.2298 20.6219 75.8232 19.9515 74.8738 18.6108C73.9244 17.2701 73.4497 15.5876 73.4497 13.5632C73.4497 11.5566 73.9244 9.88741 74.8738 8.55559C75.8232 7.22378 77.2298 6.55787 79.0935 6.55787C79.9023 6.55787 80.61 6.65109 81.2166 6.83755C81.8232 7.024 82.3199 7.29481 82.7067 7.64996C83.0935 8.00511 83.3968 8.35138 83.6166 8.68878C83.8363 9.02617 84.0517 9.44403 84.2627 9.94068H85.5023L84.5264 7.19714V0.777779H89.5637V19.8561H84.5264V19.9826ZM83.8407 11.6321C83.3836 11.2325 82.6276 11.0328 81.5726 11.0328C80.5001 11.0328 79.7177 11.2325 79.2254 11.6321C78.7331 12.0316 78.487 12.6753 78.487 13.5632C78.487 14.4517 78.7331 15.1037 79.2254 15.521C79.7177 15.9383 80.5001 16.147 81.5726 16.147C82.6276 16.147 83.3836 15.9433 83.8407 15.5343C84.2979 15.1259 84.5264 14.4689 84.5264 13.5632C84.5264 12.6753 84.2979 12.0316 83.8407 11.6321ZM60.5531 19.8561L60.1839 8.0495H58.9443L58.5751 19.8561H48.0258L46.7335 6.82423H51.5598L52.6939 19.1036H53.907L54.2763 6.82423H64.852L65.2212 19.1036H66.4607L67.6212 6.82423H72.4211L71.1024 19.8561H60.5531ZM41.8281 19.9293C40.7028 20.391 39.4188 20.6219 37.9776 20.6219C35.7095 20.6219 33.8501 20.0403 32.3996 18.8772C30.9491 17.7141 30.2238 15.9433 30.2238 13.5632C30.2238 12.3557 30.4304 11.2953 30.8436 10.3802C31.2568 9.46567 31.8238 8.73317 32.5447 8.18268C33.2655 7.63275 34.0831 7.22378 34.9974 6.95741C35.9116 6.69105 36.905 6.55787 37.9776 6.55787C40.2281 6.55787 42.0786 7.13943 43.5291 8.30255C44.9797 9.46567 45.7049 11.2192 45.7049 13.5632C45.7049 15.1792 45.3396 16.5287 44.6104 17.612C43.8808 18.6952 42.9533 19.4676 41.8281 19.9293ZM37.9776 11.0328C36.1666 11.0328 35.2611 11.8763 35.2611 13.5632C35.2611 15.2857 36.1666 16.147 37.9776 16.147C39.7534 16.147 40.6413 15.2857 40.6413 13.5632C40.6413 11.8763 39.7534 11.0328 37.9776 11.0328ZM22.4701 19.8561H17.4328V9.03505C17.4328 8.25371 17.6481 7.6544 18.0789 7.23709C18.5097 6.81979 19.1119 6.61114 19.8855 6.61114L29.1952 6.82423V11.2991L22.4701 11.166V19.8561ZM7.51639 16.147C8.25484 16.147 8.84385 15.9832 9.2834 15.6542C9.72296 15.3257 9.96911 14.9661 10.0219 14.5754H15.0855C15.0152 16.4222 14.2636 17.8916 12.8306 18.9837C11.3971 20.0758 9.62626 20.6219 7.51639 20.6219C5.28345 20.6219 3.47249 20.0181 2.08349 18.8106C0.694497 17.6031 0 15.854 0 13.5632C0 11.2903 0.694497 9.55446 2.08349 8.35582C3.47249 7.15718 5.28345 6.55787 7.51639 6.55787C9.62626 6.55787 11.3971 7.10391 12.8306 8.196C14.2636 9.28809 15.0152 10.7575 15.0855 12.6043H10.0219C9.96911 12.2137 9.72296 11.8546 9.2834 11.5255C8.84385 11.197 8.25484 11.0328 7.51639 11.0328C6.8131 11.0328 6.2241 11.2459 5.74938 11.672C5.27466 12.0982 5.0373 12.7286 5.0373 13.5632C5.0373 14.4156 5.27906 15.0593 5.76257 15.4944C6.24608 15.9294 6.83069 16.147 7.51639 16.147Z" fill="white"/>
</svg>
