<svg width="13" height="15" viewBox="0 0 13 15" fill="none" xmlns="http://www.w3.org/2000/svg">
<path d="M6.5 15C6.99254 15 7.46492 14.8025 7.8132 14.4509C8.16148 14.0992 8.35714 13.6224 8.35714 13.1251H4.64286C4.64286 13.6224 4.83852 14.0992 5.1868 14.4509C5.53508 14.8025 6.00745 15 6.5 15ZM6.5 1.79885L5.75993 1.94978C4.92046 2.12245 4.16588 2.58265 3.62389 3.25248C3.0819 3.9223 2.78581 4.76061 2.78571 5.62551C2.78571 6.21423 2.66129 7.68509 2.3595 9.13344C2.21093 9.85247 2.01036 10.6015 1.74386 11.2502H11.2561C10.9896 10.6015 10.79 9.8534 10.6405 9.13344C10.3387 7.68509 10.2143 6.21423 10.2143 5.62551C10.214 4.76077 9.91778 3.92268 9.37582 3.25305C8.83385 2.58342 8.07938 2.12336 7.24007 1.95071L6.5 1.79885ZM12.2757 11.2502C12.4828 11.6692 12.7224 12.0011 13 12.1877H0C0.277643 12.0011 0.517214 11.6692 0.724286 11.2502C1.56 9.5628 1.85714 6.45047 1.85714 5.62551C1.85714 3.35689 3.45429 1.46324 5.57607 1.03108C5.56311 0.900728 5.57736 0.769084 5.61789 0.644635C5.65842 0.520186 5.72434 0.405695 5.81139 0.308545C5.89845 0.211396 6.0047 0.133745 6.12331 0.0806014C6.24191 0.0274574 6.37024 0 6.5 0C6.62976 0 6.75809 0.0274574 6.87669 0.0806014C6.9953 0.133745 7.10155 0.211396 7.18861 0.308545C7.27566 0.405695 7.34158 0.520186 7.38211 0.644635C7.42264 0.769084 7.43689 0.900728 7.42393 1.03108C8.47348 1.2466 9.41699 1.82168 10.0947 2.65896C10.7724 3.49623 11.1427 4.54423 11.1429 5.62551C11.1429 6.45047 11.44 9.5628 12.2757 11.2502Z" fill="currentColor"/>
</svg>
