<svg width="16" height="16" viewBox="0 0 296 296" fill="none" xmlns="http://www.w3.org/2000/svg">
    <g clip-path="url(#clip0_1291_1037)">
        <path d="M219.688 148C219.699 164.87 213.756 181.203 202.906 194.121C192.056 207.039 176.996 215.714 160.377 218.617C143.759 221.52 126.649 218.465 112.062 209.99C97.4755 201.515 86.3475 188.164 80.6388 172.29L39.6354 205.092C52.3851 229.328 72.8879 248.594 97.87 259.812C122.852 271.031 150.873 273.556 177.458 266.983C204.043 260.41 227.659 245.12 244.535 223.553C261.412 201.985 270.575 175.385 270.563 148" fill="#00AC47"/>
        <path d="M219.688 148C219.678 159.405 216.944 170.643 211.712 180.778C206.48 190.912 198.903 199.65 189.61 206.263L230.147 238.693C242.859 227.248 253.024 213.261 259.987 197.638C266.949 182.015 270.552 165.104 270.563 148" fill="#4285F4"/>
        <path d="M76.3125 148C76.3302 139.713 77.7943 131.494 80.6387 123.71L39.6353 90.9081C30.3121 108.494 25.4375 128.096 25.4375 148C25.4375 167.904 30.3121 187.506 39.6353 205.092L80.6387 172.29C77.7943 164.506 76.3302 156.287 76.3125 148Z" fill="#FFBA00"/>
        <path d="M148 76.3125C163.169 76.3167 177.94 81.1641 190.162 90.1486L227.717 55.0976C213.776 43.0778 197.3 34.3615 179.52 29.5993C161.739 24.837 143.113 24.1518 125.03 27.5946C106.948 31.0375 89.8765 38.5196 75.0901 49.4825C60.3036 60.4455 48.1839 74.6062 39.6354 90.908L80.6388 123.71C85.6395 109.848 94.7877 97.862 106.84 89.3816C118.892 80.9013 133.263 76.3381 148 76.3125Z" fill="#EA4435"/>
        <path d="M270.562 138.75V148L249.75 180.375H152.625V129.5H261.312C263.766 129.5 266.119 130.475 267.853 132.209C269.588 133.944 270.562 136.297 270.562 138.75Z" fill="#4285F4"/>
    </g>
    <defs>
        <clipPath id="clip0_1291_1037">
            <rect width="296" height="296" fill="white"/>
        </clipPath>
    </defs>
</svg>
