<svg width="13" height="13" viewBox="0 0 13 13" fill="none" xmlns="http://www.w3.org/2000/svg">
    <path fill-rule="evenodd" clip-rule="evenodd" d="M12.7198 0.280098C12.7693 0.329447 12.8086 0.388071 12.8354 0.452612C12.8621 0.517154 12.8759 0.586345 12.8759 0.656223C12.8759 0.726101 12.8621 0.795292 12.8354 0.859834C12.8086 0.924376 12.7693 0.983 12.7198 1.03235L1.03235 12.7198C0.932594 12.8196 0.797297 12.8756 0.656223 12.8756C0.515149 12.8756 0.379852 12.8196 0.280098 12.7198C0.180343 12.6201 0.124302 12.4848 0.124302 12.3437C0.124302 12.2026 0.180343 12.0674 0.280098 11.9676L11.9676 0.280098C12.0169 0.230625 12.0756 0.191373 12.1401 0.164591C12.2047 0.137809 12.2738 0.124023 12.3437 0.124023C12.4136 0.124023 12.4828 0.137809 12.5473 0.164591C12.6119 0.191373 12.6705 0.230625 12.7198 0.280098Z" fill="#848484"/>
    <path fill-rule="evenodd" clip-rule="evenodd" d="M0.280098 0.280098C0.230625 0.329447 0.191373 0.388071 0.164591 0.452612C0.137809 0.517154 0.124023 0.586345 0.124023 0.656223C0.124023 0.726101 0.137809 0.795292 0.164591 0.859834C0.191373 0.924376 0.230625 0.983 0.280098 1.03235L11.9676 12.7198C12.0674 12.8196 12.2026 12.8756 12.3437 12.8756C12.4848 12.8756 12.6201 12.8196 12.7198 12.7198C12.8196 12.6201 12.8756 12.4848 12.8756 12.3437C12.8756 12.2026 12.8196 12.0674 12.7198 11.9676L1.03235 0.280098C0.983 0.230625 0.924376 0.191373 0.859834 0.164591C0.795292 0.137809 0.726101 0.124023 0.656223 0.124023C0.586345 0.124023 0.517154 0.137809 0.452612 0.164591C0.388071 0.191373 0.329447 0.230625 0.280098 0.280098Z" fill="#848484"/>
</svg>
