<svg width="14" height="12" viewBox="0 0 14 12" fill="none" xmlns="http://www.w3.org/2000/svg">
<path d="M7.8576 0.486308C7.771 0.338521 7.64613 0.215735 7.4956 0.130349C7.34506 0.0449631 7.1742 0 7.00025 0C6.82631 0 6.65544 0.0449631 6.50491 0.130349C6.35438 0.215735 6.22951 0.338521 6.1429 0.486308L0.144089 10.4856C-0.255716 11.1524 0.2237 12 1.00144 12H12.9982C13.7759 12 14.2562 11.1515 13.8555 10.4856L7.8576 0.486308ZM6.9985 3.42944C7.46655 3.42944 7.83311 3.8254 7.78586 4.28221L7.47967 7.2879C7.46938 7.40598 7.41423 7.51598 7.32513 7.59613C7.23603 7.67629 7.11947 7.72076 6.9985 7.72076C6.87754 7.72076 6.76097 7.67629 6.67188 7.59613C6.58278 7.51598 6.52763 7.40598 6.51734 7.2879L6.21114 4.28221C6.20015 4.17442 6.21232 4.06557 6.24688 3.96267C6.28143 3.85977 6.33761 3.7651 6.41178 3.68477C6.48596 3.60443 6.57649 3.5402 6.67754 3.49623C6.77859 3.45225 6.88793 3.4295 6.9985 3.42944ZM7.00025 8.57178C7.23228 8.57178 7.4548 8.66207 7.61886 8.8228C7.78293 8.98353 7.8751 9.20153 7.8751 9.42883C7.8751 9.65614 7.78293 9.87413 7.61886 10.0349C7.4548 10.1956 7.23228 10.2859 7.00025 10.2859C6.76823 10.2859 6.54571 10.1956 6.38164 10.0349C6.21758 9.87413 6.12541 9.65614 6.12541 9.42883C6.12541 9.20153 6.21758 8.98353 6.38164 8.8228C6.54571 8.66207 6.76823 8.57178 7.00025 8.57178Z" fill="#FF0000"/>
</svg>
