<svg width="17" height="17" viewBox="0 0 17 17" fill="none" xmlns="http://www.w3.org/2000/svg">
<path d="M8.5 6.90625C8.6409 6.90625 8.77602 6.96222 8.87565 7.06185C8.97528 7.16148 9.03125 7.2966 9.03125 7.4375V9.03125H10.625C10.7659 9.03125 10.901 9.08722 11.0007 9.18685C11.1003 9.28648 11.1562 9.4216 11.1562 9.5625C11.1562 9.7034 11.1003 9.83852 11.0007 9.93815C10.901 10.0378 10.7659 10.0938 10.625 10.0938H9.03125V11.6875C9.03125 11.8284 8.97528 11.9635 8.87565 12.0632C8.77602 12.1628 8.6409 12.2188 8.5 12.2188C8.3591 12.2188 8.22398 12.1628 8.12435 12.0632C8.02472 11.9635 7.96875 11.8284 7.96875 11.6875V10.0938H6.375C6.2341 10.0938 6.09898 10.0378 5.99935 9.93815C5.89972 9.83852 5.84375 9.7034 5.84375 9.5625C5.84375 9.4216 5.89972 9.28648 5.99935 9.18685C6.09898 9.08722 6.2341 9.03125 6.375 9.03125H7.96875V7.4375C7.96875 7.2966 8.02472 7.16148 8.12435 7.06185C8.22398 6.96222 8.3591 6.90625 8.5 6.90625Z" fill="#848484"/>
<path d="M14.875 4.78125V14.875C14.875 15.4386 14.6511 15.9791 14.2526 16.3776C13.8541 16.7761 13.3136 17 12.75 17H4.25C3.68641 17 3.14591 16.7761 2.7474 16.3776C2.34888 15.9791 2.125 15.4386 2.125 14.875V2.125C2.125 1.56141 2.34888 1.02091 2.7474 0.622398C3.14591 0.223883 3.68641 0 4.25 0L10.0938 0L14.875 4.78125ZM11.6875 4.78125C11.2648 4.78125 10.8594 4.61334 10.5605 4.31445C10.2617 4.01557 10.0938 3.61019 10.0938 3.1875V1.0625H4.25C3.96821 1.0625 3.69796 1.17444 3.4987 1.3737C3.29944 1.57296 3.1875 1.84321 3.1875 2.125V14.875C3.1875 15.1568 3.29944 15.427 3.4987 15.6263C3.69796 15.8256 3.96821 15.9375 4.25 15.9375H12.75C13.0318 15.9375 13.302 15.8256 13.5013 15.6263C13.7006 15.427 13.8125 15.1568 13.8125 14.875V4.78125H11.6875Z" fill="#848484"/>
</svg>
