<svg xmlns="http://www.w3.org/2000/svg" viewBox="0 0 741.44 790.21" fill="white">
    <path d="m411,790.21h-80.57c-19.54,0-37.57-8.89-49.46-24.39-11.89-15.5-15.82-35.22-10.76-54.09l40.29-150.35c7.41-27.64,31.61-46.21,60.22-46.21s52.81,18.57,60.22,46.21l40.29,150.35c5.06,18.87,1.14,38.59-10.76,54.09-11.9,15.5-29.92,24.39-49.46,24.39Zm-40.29-244.77c-11.9,0-26.29,6.25-30.99,23.78l-40.29,150.35c-2.6,9.71-.58,19.85,5.54,27.83s15.4,12.55,25.45,12.55h80.57c10.05,0,19.33-4.58,25.45-12.55s8.14-18.12,5.54-27.83l-40.29-150.35c-4.7-17.53-19.09-23.78-30.98-23.78Z"/>
    <path d="m102.84,658.73c-2.75,0-5.52-.18-8.3-.55-19.37-2.55-36.08-13.72-45.85-30.64l-40.29-69.78c-9.77-16.92-11.08-36.98-3.61-55.03s22.59-31.3,41.46-36.36l150.35-40.29c27.64-7.41,55.82,4.27,70.13,29.05,14.31,24.78,10.33,55.02-9.91,75.26l-110.06,110.06c-11.83,11.83-27.5,18.27-43.92,18.27Zm110.71-204.65c-2.87,0-5.91.39-9.11,1.25l-150.35,40.29c-9.71,2.6-17.49,9.42-21.33,18.71-3.85,9.29-3.17,19.61,1.86,28.31l40.29,69.78c5.03,8.71,13.63,14.45,23.59,15.76,9.96,1.31,19.76-2.01,26.87-9.12l110.06-110.06c12.83-12.83,11.05-28.42,5.1-38.72-4.86-8.42-14.17-16.19-26.97-16.19Z"/>
    <path d="m213.17,366.32c-5.47,0-11.03-.72-16.56-2.2l-150.35-40.29c-18.87-5.06-33.99-18.31-41.46-36.36s-6.16-38.11,3.61-55.03l40.29-69.78c9.77-16.92,26.48-28.09,45.86-30.64,19.37-2.55,38.41,3.91,52.22,17.73l110.06,110.06c20.23,20.23,24.22,50.48,9.91,75.26-11.44,19.82-31.75,31.25-53.57,31.25Zm-8.73-31.44c17.52,4.69,30.13-4.64,36.08-14.95,5.95-10.3,7.73-25.89-5.1-38.72l-110.06-110.06c-7.11-7.11-16.91-10.43-26.87-9.12-9.97,1.31-18.57,7.06-23.59,15.76l-40.29,69.78c-5.03,8.71-5.7,19.03-1.86,28.31,3.85,9.29,11.62,16.11,21.33,18.71l150.35,40.29Z"/>
    <path d="m370.72,275.04c-28.61,0-52.81-18.57-60.22-46.21l-40.29-150.35c-5.06-18.87-1.14-38.59,10.76-54.09,11.9-15.5,29.92-24.39,49.46-24.39h80.57c19.54,0,37.57,8.89,49.46,24.39,11.89,15.5,15.82,35.22,10.76,54.09l-40.29,150.35c-7.41,27.64-31.61,46.21-60.22,46.21Zm-30.98-54.04c4.7,17.53,19.09,23.77,30.98,23.77s26.29-6.25,30.99-23.77l40.29-150.35c2.6-9.71.58-19.85-5.54-27.83s-15.4-12.55-25.45-12.55h-80.57c-10.05,0-19.33,4.57-25.45,12.55s-8.14,18.12-5.54,27.83l40.29,150.35Z"/>
    <path d="m528.26,366.32c-21.81,0-42.12-11.43-53.57-31.25-14.31-24.78-10.32-55.02,9.91-75.26h0s0,0,0,0l110.06-110.06c13.82-13.82,32.85-20.28,52.22-17.73,19.37,2.55,36.09,13.72,45.86,30.64l40.29,69.78c9.77,16.92,11.08,36.98,3.61,55.03s-22.59,31.31-41.46,36.36l-150.35,40.29c-5.54,1.48-11.1,2.2-16.56,2.2Zm110.41-204.57c-8.45,0-16.51,3.31-22.6,9.4l-110.06,110.06c-12.83,12.83-11.05,28.42-5.1,38.72,5.95,10.31,18.55,19.64,36.08,14.95l150.35-40.29c9.71-2.6,17.49-9.42,21.33-18.71,3.85-9.29,3.17-19.61-1.86-28.31l-40.29-69.78c-5.03-8.71-13.63-14.45-23.59-15.76-1.43-.19-2.85-.28-4.27-.28Z"/>
    <path d="m638.59,658.73c-16.43,0-32.09-6.44-43.92-18.27l-110.06-110.06c-20.23-20.23-24.21-50.48-9.91-75.26,14.31-24.78,42.5-36.45,70.13-29.05l150.35,40.29c18.87,5.06,33.99,18.31,41.46,36.36,7.48,18.05,6.16,38.11-3.61,55.03l-40.29,69.78c-9.77,16.92-26.48,28.09-45.86,30.64-2.78.37-5.55.55-8.3.55Zm-110.72-204.66c-12.8,0-22.11,7.77-26.97,16.19-5.95,10.3-7.74,25.89,5.1,38.72l110.06,110.06c7.11,7.11,16.9,10.43,26.87,9.12,9.97-1.31,18.57-7.06,23.59-15.76l40.29-69.78c5.03-8.71,5.7-19.03,1.86-28.31-3.85-9.29-11.62-16.11-21.33-18.71l-150.35-40.29c-3.21-.86-6.25-1.25-9.11-1.25Z"/>
</svg>