<svg width="16" height="20" viewBox="0 0 16 20" fill="none" xmlns="http://www.w3.org/2000/svg">
    <path d="M6.35956 1.86473C6.44297 0.675214 7.58117 -0.24459 8.80792 0.058195L9.14283 0.14216C9.73696 0.289736 10.2644 0.722286 10.4414 1.36984C10.7237 2.40796 11.1254 4.56434 10.521 7.10748C10.71 7.0816 10.8995 7.05997 11.0895 7.0426C12.0044 6.9599 13.2311 6.951 14.318 7.30976C14.9827 7.52985 15.5935 8.17613 15.8578 8.92928C16.094 9.60609 16.0632 10.4076 15.5576 11.134C15.632 11.2854 15.6897 11.4419 15.7347 11.5958C15.8335 11.9393 15.8797 12.3172 15.8797 12.6848C15.8797 13.0525 15.8335 13.4303 15.7347 13.7738C15.6846 13.9456 15.6192 14.1211 15.5293 14.2878C15.7462 14.7801 15.6666 15.3297 15.5255 15.7483C15.381 16.1616 15.1695 16.5487 14.8993 16.8945C14.9686 17.0879 14.9968 17.2915 14.9968 17.4861C14.9968 17.8741 14.8826 18.2813 14.6722 18.6464C14.2436 19.3919 13.3928 20 12.1904 20H7.69923C6.92289 20 6.3262 19.897 5.81805 19.7227C5.38111 19.5645 4.96357 19.3579 4.57334 19.1069L4.51175 19.0687C3.86501 18.6782 3.22983 18.294 1.85808 18.1502C0.875146 18.0459 0 17.2597 0 16.1834V11.0946C0 10.0132 0.878995 9.27277 1.74131 9.03996C2.83075 8.74481 3.76107 8.03873 4.4771 7.24615C5.1957 6.44848 5.64995 5.61773 5.81035 5.16101C6.06571 4.42949 6.26717 3.20308 6.35956 1.866V1.86473Z" fill="currentColor"/>
</svg>
