<svg width="16" height="20" viewBox="0 0 16 20" fill="none" xmlns="http://www.w3.org/2000/svg">
    <path d="M8.80737 0.058631C7.58071 -0.245439 6.44129 0.674404 6.35917 1.86524C6.26679 3.20238 6.06405 4.43011 5.80999 5.16039C5.6496 5.6184 5.19538 6.44918 4.47554 7.24562C3.76084 8.03823 2.83058 8.74434 1.7412 9.0395C0.878941 9.27232 0 10.0128 0 11.0942V16.1845C0 17.2596 0.875092 18.0471 1.85797 18.1501C3.23091 18.2952 3.86477 18.6781 4.51147 19.07L4.57306 19.1081C4.92207 19.3181 5.31471 19.5509 5.81769 19.7239C6.32709 19.8969 6.92246 20 7.69875 20H12.1897C13.392 20 14.2414 19.3931 14.6713 18.6463C14.879 18.2939 14.9913 17.8942 14.9972 17.486C14.9972 17.2926 14.9677 17.0891 14.8984 16.8957C15.1563 16.5611 15.386 16.1603 15.5245 15.7494C15.6657 15.3295 15.7452 14.7799 15.5297 14.2876C15.6182 14.1222 15.6836 13.9453 15.7337 13.7748C15.8325 13.4313 15.8787 13.0522 15.8787 12.6845C15.8787 12.3181 15.8325 11.9402 15.7337 11.5955C15.6888 11.437 15.6295 11.2828 15.5566 11.1349C15.7813 10.818 15.9258 10.4521 15.9781 10.0682C16.0304 9.68424 15.9888 9.29348 15.8569 8.92881C15.5925 8.17564 14.9818 7.52933 14.3171 7.3105C13.2303 6.95172 12.0036 6.95936 11.0888 7.04205C10.8988 7.059 10.7093 7.08021 10.5203 7.10567C10.9655 5.21558 10.9382 3.24629 10.4408 1.36906C10.3543 1.06828 10.1883 0.795885 9.95998 0.58004C9.73168 0.364195 9.44938 0.212736 9.14227 0.141328L8.80737 0.058631ZM12.1897 18.729H7.69875C7.04436 18.729 6.59142 18.6412 6.23599 18.5204C5.87543 18.397 5.58673 18.2303 5.24029 18.0204L5.18896 17.9898C4.47683 17.5585 3.65178 17.0598 1.99398 16.8855C1.5667 16.8397 1.28313 16.5166 1.28313 16.1858V11.0942C1.28313 10.771 1.57311 10.4034 2.07866 10.2672C3.48369 9.88555 4.6154 9.00006 5.43275 8.09421C6.24754 7.19091 6.798 6.21763 7.02126 5.57769C7.33306 4.6871 7.5435 3.32833 7.63973 1.95175C7.67181 1.49119 8.10166 1.19603 8.49557 1.29272L8.83175 1.37669C9.03705 1.42758 9.1628 1.55862 9.20129 1.70112C9.7253 3.68078 9.66069 5.76846 9.01524 7.71253C8.97871 7.82066 8.97216 7.93653 8.99628 8.04803C9.0204 8.15953 9.0743 8.26254 9.15234 8.3463C9.23039 8.43006 9.3297 8.49147 9.4399 8.52412C9.55009 8.55676 9.66711 8.55944 9.7787 8.53187L9.78255 8.5306L9.80051 8.52678L9.87494 8.50897C10.3137 8.41658 10.7576 8.34988 11.2043 8.30922C12.055 8.23289 13.0738 8.24052 13.9116 8.51787C14.1362 8.59166 14.4891 8.89955 14.643 9.34484C14.7803 9.7367 14.7547 10.1973 14.3017 10.6451L13.8488 11.0942L14.3017 11.5446C14.3569 11.5993 14.4364 11.724 14.4993 11.9453C14.5609 12.1578 14.5956 12.4161 14.5956 12.6845C14.5956 12.9542 14.5609 13.2112 14.4993 13.425C14.4352 13.6463 14.3569 13.771 14.3017 13.8257L13.8488 14.2748L14.3017 14.7252C14.362 14.785 14.4416 14.9504 14.3081 15.3461C14.1691 15.7298 13.948 16.0791 13.6602 16.3702L13.2072 16.8194L13.6602 17.2697C13.6679 17.2761 13.7128 17.3333 13.7128 17.486C13.7071 17.6726 13.6536 17.8547 13.5575 18.0153C13.3458 18.3817 12.9121 18.729 12.1897 18.729Z" fill="currentColor"/>
</svg>
