<svg width="18" height="14" viewBox="0 0 18 14" fill="none" xmlns="http://www.w3.org/2000/svg">
    <path d="M6.76667 10.9867L0.485668 6.4767C0.337726 6.38928 0.215126 6.2648 0.129959 6.11555C0.044792 5.96629 0 5.79742 0 5.62558C0 5.45373 0.044792 5.28486 0.129959 5.1356C0.215126 4.98635 0.337726 4.86187 0.485668 4.77445L6.76667 0.261699C6.91639 0.173633 7.08676 0.12675 7.26046 0.125808C7.43416 0.124866 7.60502 0.169899 7.75569 0.256337C7.90637 0.342774 8.03149 0.467539 8.11835 0.617964C8.20522 0.768389 8.25074 0.93912 8.25029 1.11282V2.8742C10.3128 2.8742 16.5003 2.8742 17.8753 13.8742C14.4378 7.6867 8.25029 8.3742 8.25029 8.3742V10.1356C8.25029 10.9056 7.41704 11.3703 6.76667 10.9881V10.9867Z" fill="currentColor"/>
</svg>
