<svg width="15" height="12" viewBox="0 0 15 12" fill="none" xmlns="http://www.w3.org/2000/svg">
    <path d="M8.73285 0.486308C8.64625 0.338521 8.52137 0.215735 8.37084 0.130349C8.22031 0.0449631 8.04944 0 7.8755 0C7.70155 0 7.53069 0.0449631 7.38015 0.130349C7.22962 0.215735 7.10475 0.338521 7.01815 0.486308L1.01933 10.4856C0.619528 11.1524 1.09894 12 1.87668 12H13.8734C14.6512 12 15.1315 11.1515 14.7308 10.4856L8.73285 0.486308ZM7.87375 3.42944C8.34179 3.42944 8.70835 3.8254 8.66111 4.28221L8.35491 7.2879C8.34462 7.40598 8.28948 7.51598 8.20038 7.59613C8.11128 7.67629 7.99472 7.72076 7.87375 7.72076C7.75278 7.72076 7.63622 7.67629 7.54712 7.59613C7.45802 7.51598 7.40287 7.40598 7.39258 7.2879L7.08639 4.28221C7.07539 4.17442 7.08756 4.06557 7.12212 3.96267C7.15668 3.85977 7.21285 3.7651 7.28703 3.68477C7.3612 3.60443 7.45173 3.5402 7.55279 3.49623C7.65384 3.45225 7.76317 3.4295 7.87375 3.42944ZM7.8755 8.57178C8.10752 8.57178 8.33004 8.66207 8.49411 8.8228C8.65817 8.98353 8.75034 9.20153 8.75034 9.42883C8.75034 9.65614 8.65817 9.87413 8.49411 10.0349C8.33004 10.1956 8.10752 10.2859 7.8755 10.2859C7.64347 10.2859 7.42095 10.1956 7.25689 10.0349C7.09282 9.87413 7.00065 9.65614 7.00065 9.42883C7.00065 9.20153 7.09282 8.98353 7.25689 8.8228C7.42095 8.66207 7.64347 8.57178 7.8755 8.57178Z" fill="currentColor"/>
</svg>
